<svg width="261" height="91" viewBox="0 0 261 91" fill="none" xmlns="http://www.w3.org/2000/svg">
<path d="M36.778 7.70664L65.0294 65.2227C65.1926 65.5549 64.9507 65.9431 64.5806 65.9431H8.07782C7.70767 65.9431 7.46584 65.5549 7.62903 65.2227L35.8804 7.70664C36.0635 7.33389 36.5949 7.33389 36.778 7.70664Z" fill="#F8F4E3" stroke="#F8F4E3" stroke-width="3"/>
<path d="M36.335 29.0575L48.8554 54.5473C49.0185 54.8795 48.7767 55.2677 48.4066 55.2677H23.3658C22.9957 55.2677 22.7538 54.8795 22.917 54.5473L35.4374 29.0575C35.6205 28.6847 36.1519 28.6847 36.335 29.0575Z" fill="#0E0E0E" stroke="#0E0E0E" stroke-width="3"/>
<path d="M159.057 9.24863L187.308 66.7647C187.471 67.0969 187.23 67.4851 186.859 67.4851H130.357C129.986 67.4851 129.745 67.0969 129.908 66.7647L158.159 9.24863C158.342 8.87588 158.874 8.87588 159.057 9.24863Z" fill="#F8F4E3" stroke="#F8F4E3" stroke-width="3"/>
<path d="M158.614 30.5994L171.134 56.0893C171.297 56.4215 171.055 56.8097 170.685 56.8097H145.645C145.274 56.8097 145.033 56.4215 145.196 56.0893L157.716 30.5994C157.899 30.2267 158.431 30.2267 158.614 30.5994Z" fill="#0E0E0E" stroke="#0E0E0E" stroke-width="3"/>
<path d="M78.861 7.92444V65.228C78.861 67.9894 81.0995 70.228 83.861 70.228H90.5641C93.3255 70.228 95.5641 67.9894 95.5641 65.228V46.0663C101.503 47.4086 116.962 44.0528 116.962 20.8978C116.962 0.743488 96.8139 2.19948 84.0039 2.69403C81.1875 2.80276 78.861 5.10591 78.861 7.92444Z" fill="#F8F4E3" stroke="#0E0E0E" stroke-width="3"/>
<path d="M199.937 70.228C197.176 70.228 194.937 67.9895 194.937 65.228V12.1039C194.937 9.34245 197.176 7.10387 199.937 7.10387H215.352L218.774 12.5973C222.468 18.527 230.948 18.9386 235.199 13.3943L240.021 7.10387H253.735C256.496 7.10387 258.735 9.34245 258.735 12.1039V65.228C258.735 67.9895 256.496 70.228 253.735 70.228H240.021V37.6796L233.331 43.0128C229.38 46.1623 223.7 45.8699 220.094 42.3315L215.352 37.6796V70.228H199.937Z" fill="#0E0E0E" stroke="#F8F4E3" stroke-width="3"/>
</svg>
