<svg width="188" height="197" viewBox="0 0 188 197" fill="none" xmlns="http://www.w3.org/2000/svg">
<ellipse cx="51.768" cy="97.5158" rx="42.3232" ry="45.6793" fill="#0E0E0E"/>
<ellipse cx="93.3487" cy="55.8434" rx="42.3232" ry="45.6793" fill="#0E0E0E"/>
<ellipse cx="94.3387" cy="141.325" rx="42.3232" ry="45.6793" fill="#0E0E0E"/>
<ellipse cx="135.919" cy="96.4473" rx="42.3232" ry="45.6793" fill="#0E0E0E"/>
<path d="M92.6171 97.4036C92.6171 124.562 72.2448 146.379 47.3505 146.379C22.4562 146.379 2.08389 124.562 2.08389 97.4036C2.08389 70.2456 22.4562 48.4285 47.3505 48.4285C72.2448 48.4285 92.6171 70.2456 92.6171 97.4036Z" stroke="#0E0E0E" stroke-width="3"/>
<path d="M138.563 51.3562C138.563 78.5142 118.191 100.331 93.2966 100.331C68.4023 100.331 48.03 78.5142 48.03 51.3562C48.03 24.1982 68.4023 2.38112 93.2966 2.38112C118.191 2.38112 138.563 24.1982 138.563 51.3562Z" stroke="#0E0E0E" stroke-width="3"/>
<path d="M139.657 145.812C139.657 172.97 119.285 194.787 94.3906 194.787C69.4962 194.787 49.124 172.97 49.124 145.812C49.124 118.654 69.4962 96.8373 94.3906 96.8373C119.285 96.8373 139.657 118.654 139.657 145.812Z" stroke="#0E0E0E" stroke-width="3"/>
<path d="M185.603 96.2229C185.603 123.381 165.231 145.198 140.337 145.198C115.442 145.198 95.0701 123.381 95.0701 96.2229C95.0701 69.0649 115.442 47.2478 140.337 47.2478C165.231 47.2478 185.603 69.0649 185.603 96.2229Z" stroke="#0E0E0E" stroke-width="3"/>
</svg>
