<svg width="292" height="141" viewBox="0 0 292 141" fill="none" xmlns="http://www.w3.org/2000/svg">
<path d="M134 70.5C134 108.925 104.186 140 67.5 140C30.8136 140 1 108.925 1 70.5C1 32.0748 30.8136 1 67.5 1C104.186 1 134 32.0748 134 70.5Z" fill="#5B9279" stroke="#0E0E0E" stroke-width="2"/>
<path d="M129.5 70.5C129.5 106.507 101.636 135.5 67.5 135.5C33.3642 135.5 5.5 106.507 5.5 70.5C5.5 34.4932 33.3642 5.5 67.5 5.5C101.636 5.5 129.5 34.4932 129.5 70.5Z" stroke="#F8F4E3" stroke-width="5"/>
<ellipse cx="39.1206" cy="69.7362" rx="27.7091" ry="29.9064" fill="#0E0E0E"/>
<ellipse cx="66.3436" cy="42.4532" rx="27.7091" ry="29.9064" fill="#0E0E0E"/>
<ellipse cx="66.9918" cy="98.4184" rx="27.7091" ry="29.9064" fill="#0E0E0E"/>
<ellipse cx="94.2148" cy="69.0366" rx="27.7091" ry="29.9064" fill="#0E0E0E"/>
<path d="M65.3468 69.6628C65.3468 87.1951 52.2043 101.209 36.2285 101.209C20.2527 101.209 7.11026 87.1951 7.11026 69.6628C7.11026 52.1304 20.2527 38.1166 36.2285 38.1166C52.2043 38.1166 65.3468 52.1304 65.3468 69.6628Z" stroke="#0E0E0E" stroke-width="3"/>
<path d="M95.4278 39.5154C95.4278 57.0477 82.2854 71.0616 66.3096 71.0616C50.3337 71.0616 37.1913 57.0477 37.1913 39.5154C37.1913 21.9831 50.3337 7.96919 66.3096 7.96919C82.2854 7.96919 95.4278 21.9831 95.4278 39.5154Z" stroke="#0E0E0E" stroke-width="3"/>
<path d="M96.1441 101.356C96.1441 118.889 83.0016 132.902 67.0258 132.902C51.05 132.902 37.9076 118.889 37.9076 101.356C37.9076 83.8239 51.05 69.81 67.0258 69.81C83.0016 69.81 96.1441 83.8239 96.1441 101.356Z" stroke="#0E0E0E" stroke-width="3"/>
<path d="M126.225 68.8898C126.225 86.4221 113.083 100.436 97.1069 100.436C81.1311 100.436 67.9886 86.4221 67.9886 68.8898C67.9886 51.3574 81.1311 37.3436 97.1069 37.3436C113.083 37.3436 126.225 51.3574 126.225 68.8898Z" stroke="#0E0E0E" stroke-width="3"/>
<path d="M67.778 32.2443L96.0294 89.7603C96.1926 90.0926 95.9507 90.4808 95.5806 90.4808H39.0778C38.7077 90.4808 38.4658 90.0926 38.629 89.7603L66.8804 32.2443C67.0635 31.8715 67.5949 31.8715 67.778 32.2443Z" fill="#F8F4E3" stroke="#F8F4E3" stroke-width="3"/>
<path d="M67.335 53.5951L79.8554 79.0849C80.0185 79.4172 79.7767 79.8054 79.4066 79.8054H54.3658C53.9957 79.8054 53.7538 79.4172 53.917 79.0849L66.4374 53.5951C66.6205 53.2224 67.1519 53.2224 67.335 53.5951Z" fill="#0E0E0E" stroke="#0E0E0E" stroke-width="3"/>
<path d="M187.778 33.316L216.029 90.832C216.193 91.1643 215.951 91.5525 215.581 91.5525H159.078C158.708 91.5525 158.466 91.1643 158.629 90.832L186.88 33.316C187.064 32.9432 187.595 32.9432 187.778 33.316Z" fill="#F8F4E3" stroke="#F8F4E3" stroke-width="3"/>
<path d="M187.335 54.6668L199.855 80.1566C200.019 80.4889 199.777 80.8771 199.407 80.8771H174.366C173.996 80.8771 173.754 80.4889 173.917 80.1566L186.437 54.6668C186.62 54.2941 187.152 54.2941 187.335 54.6668Z" fill="#0E0E0E" stroke="#0E0E0E" stroke-width="3"/>
<path d="M109.861 32.4621V89.7656C109.861 92.5271 112.1 94.7656 114.861 94.7656H121.564C124.326 94.7656 126.564 92.5271 126.564 89.7656V70.6039C132.503 71.9462 147.962 68.5904 147.962 45.4354C147.962 25.2811 127.814 26.7371 115.004 27.2316C112.187 27.3404 109.861 29.6435 109.861 32.4621Z" fill="#F8F4E3" stroke="#0E0E0E" stroke-width="3"/>
<path d="M230.937 94.7657C228.176 94.7657 225.937 92.5271 225.937 89.7657V36.6415C225.937 33.8801 228.176 31.6415 230.937 31.6415H246.352L249.774 37.1349C253.468 43.0646 261.948 43.4762 266.199 37.932L271.021 31.6415H284.735C287.496 31.6415 289.735 33.8801 289.735 36.6415V89.7657C289.735 92.5271 287.496 94.7657 284.735 94.7657H271.021V62.2173L264.331 67.5505C260.38 70.6999 254.7 70.4076 251.094 66.8691L246.352 62.2173V94.7657H230.937Z" fill="#0E0E0E" stroke="#F8F4E3" stroke-width="3"/>
</svg>
